<?xml version="1.0" encoding="UTF-8"?>
<svg xmlns="http://www.w3.org/2000/svg" xmlns:xlink="http://www.w3.org/1999/xlink" width="1498pt" height="298.86pt" viewBox="0 0 1498 298.86" version="1.1">
<defs>
<clipPath id="clip1">
  <path d="M 0 0 L 1498 0 L 1498 298.859375 L 0 298.859375 Z M 0 0 "/>
</clipPath>
</defs>
<g id="surface1">
<g clip-path="url(#clip1)" clip-rule="nonzero">
<path style=" stroke:none;fill-rule:nonzero;fill:rgb(3.529358%,67.0578%,78.822327%);fill-opacity:1;" d="M 1490.199219 58.101563 C 1495.21875 58.730469 1498.5 61.355469 1497.941406 67.859375 C 1496.820313 77.300781 1484.179688 172.625 1478.859375 210.351563 C 1476.070313 232.160156 1476.25 230.621094 1460.890625 233.027344 C 1442.878906 235.796875 782.632813 298.859375 746.707031 298.859375 C 675.585938 296.125 36.546875 238.800781 9.335938 234.988281 C 0.761719 233.78125 -0.355469 229.03125 0.078125 225.042969 C 0.378906 221.066406 20.828125 71.371094 21.292969 68.117188 C 22.160156 63.027344 23.089844 60.671875 27.984375 59.214844 C 30.988281 58.65625 731.925781 1.363281 785.640625 0 C 836.761719 0 1482.941406 57.179688 1490.199219 58.101563 "/>
</g>
<path style=" stroke:none;fill-rule:nonzero;fill:rgb(100%,100%,100%);fill-opacity:1;" d="M 806.347656 195.964844 C 787.488281 214.738281 762.226563 226.714844 735.820313 226.714844 C 719.191406 226.714844 704.230469 221.789063 692.023438 213.535156 C 706.554688 231.640625 728.757813 243.09375 755.28125 243.09375 C 807.089844 243.09375 855.152344 199.851563 862.703125 146.605469 C 869.953125 96.113281 837.960938 54.734375 790.5625 50.542969 C 813.792969 59.589844 830.410156 79.386719 835.945313 104.472656 C 834.4375 100.320313 832.515625 96.324219 830.035156 92.390625 C 810.757813 62.160156 768.351563 57.359375 735.539063 81.617188 C 704.414063 104.742188 692.953125 145.726563 708.402344 175.679688 C 703.351563 150.039063 714.785156 120.457031 739.136719 102.511719 C 752.636719 92.480469 767.980469 87.628906 782.347656 87.804688 L 782.347656 88.019531 C 815 88.019531 837.585938 115.355469 832.878906 148.980469 C 832.402344 152.824219 831.453125 156.550781 830.246094 160.074219 C 826.132813 172.714844 820.089844 180.140625 812.96875 188.699219 L 806.347656 195.964844 "/>
<path style=" stroke:none;fill-rule:nonzero;fill:rgb(100%,100%,100%);fill-opacity:1;" d="M 800.59375 191.488281 C 774.46875 209.417969 741.398438 211.390625 718.171875 193.648438 C 688.53125 171.132813 686.15625 125.40625 712.863281 91.652344 C 722.066406 80.035156 733.507813 71.476563 745.644531 65.972656 C 725.699219 69.628906 705.8125 81.0625 691.289063 99.367188 C 662.941406 135.222656 665.441406 183.773438 696.855469 207.652344 C 726.617188 230.433594 771.792969 222.902344 800.59375 191.488281 "/>
<path style=" stroke:none;fill-rule:nonzero;fill:rgb(100%,100%,100%);fill-opacity:1;" d="M 201.007813 121.664063 L 203.488281 104.386719 C 203.898438 101.042969 201.566406 100.699219 197.664063 100.699219 L 123.109375 100.699219 C 119.175781 100.699219 116.675781 101.042969 116.117188 104.386719 L 113.722656 121.664063 C 113.363281 123.640625 113.238281 125.226563 117.050781 125.226563 L 135.804688 125.226563 C 138.074219 125.226563 138.878906 125.652344 138.632813 127.925781 L 128.683594 197.707031 C 128.128906 201.796875 129.617188 202.351563 135.066406 202.351563 L 155.082031 202.351563 C 160.101563 202.351563 162.332031 201.320313 162.890625 197.707031 L 172.742188 127.925781 C 173.042969 125.652344 174.160156 125.226563 176.355469 125.226563 L 196.621094 125.226563 C 200.558594 125.226563 200.738281 123.640625 201.007813 121.664063 "/>
<path style=" stroke:none;fill-rule:nonzero;fill:rgb(100%,100%,100%);fill-opacity:1;" d="M 330.679688 170.878906 L 339.992188 105.214844 C 340.550781 101.683594 338.300781 100.699219 333.5 100.699219 L 311.347656 100.699219 C 307.441406 100.699219 306.234375 101.683594 305.859375 104.296875 L 297.589844 162.121094 C 296.566406 169.636719 294.53125 175.863281 286.871094 175.863281 C 282.625 175.863281 279.269531 171.257813 280.488281 162.304688 L 288.578125 105.214844 C 289.132813 101.683594 287.179688 100.699219 282.140625 100.699219 L 261.050781 100.699219 C 257.167969 100.699219 255.921875 101.683594 255.566406 104.296875 L 245.707031 173.179688 C 241.46875 203.664063 269.988281 204.222656 283.058594 204.222656 C 295 204.222656 325.835938 204.863281 330.679688 170.878906 "/>
<path style=" stroke:none;fill-rule:nonzero;fill:rgb(100%,100%,100%);fill-opacity:1;" d="M 449.515625 133.769531 C 448.65625 140.183594 445.042969 143.4375 439.085938 143.4375 L 430.316406 143.53125 C 428.117188 143.53125 427.613281 142.796875 427.816406 140.835938 L 429.789063 127.449219 C 429.953125 126.34375 430.511719 124.921875 432.671875 124.921875 L 440.023438 124.921875 C 447.71875 124.921875 450.074219 129.039063 449.515625 133.769531 Z M 482.984375 134.988281 C 485.679688 116.265625 473.847656 100.699219 446.335938 100.699219 L 403.859375 100.699219 C 399.945313 100.699219 398.71875 101.683594 398.285156 104.296875 L 385.085938 197.457031 C 384.691406 200.710938 384.226563 202.351563 388.542969 202.351563 L 411.488281 202.351563 C 417.613281 202.351563 418.730469 201.539063 419.164063 197.890625 L 423.015625 171.257813 C 423.191406 169.925781 423.390625 169.277344 424.378906 169.277344 L 428.117188 169.277344 C 429.230469 169.277344 429.523438 169.277344 429.882813 170.394531 L 437.9375 198.066406 C 438.796875 200.710938 438.621094 202.171875 443.457031 202.351563 L 469.964844 202.351563 C 474.300781 202.476563 473.742188 199.648438 473.09375 197.457031 L 463.46875 162.121094 C 463.097656 160.453125 462.789063 160.632813 464.914063 159.515625 C 470.5 156.636719 480.984375 148.726563 482.984375 134.988281 "/>
<path style=" stroke:none;fill-rule:nonzero;fill:rgb(100%,100%,100%);fill-opacity:1;" d="M 588.945313 172.984375 C 587.636719 180.089844 581.128906 181.4375 575.621094 181.4375 L 568.304688 181.4375 C 566.058594 181.347656 565.988281 180.449219 566.164063 179.023438 L 568.125 165.917969 C 568.375 163.976563 568.933594 163.328125 571.253906 163.328125 L 578.878906 163.328125 C 582.800781 163.328125 590.246094 164.566406 588.945313 172.984375 Z M 593.304688 130.332031 C 591.320313 138.425781 586.34375 139.539063 581.882813 139.71875 L 574.261719 139.71875 C 571.8125 139.59375 571.5625 138.984375 571.761719 137.023438 L 573.703125 123.710938 C 573.988281 122.398438 574.4375 121.285156 576.5625 121.285156 L 583.914063 121.285156 C 590.617188 121.199219 594.882813 123.464844 593.304688 130.332031 Z M 620.847656 176.636719 C 623.242188 159.050781 614.972656 154.320313 610.527344 151.296875 C 618.296875 147.050781 624.460938 139.035156 626.300781 126.34375 C 628.53125 110.140625 618.117188 100.699219 591.074219 100.699219 L 549.535156 100.699219 C 545.238281 100.699219 545.148438 102.332031 544.679688 105.496094 L 531.390625 198.738281 C 531.011719 201.320313 532.03125 202.351563 535.851563 202.351563 L 582.492188 202.351563 C 605.292969 202.351563 618.296875 194.019531 620.847656 176.636719 "/>
<path style=" stroke:none;fill-rule:nonzero;fill:rgb(100%,100%,100%);fill-opacity:1;" d="M 988.097656 104.386719 C 986.546875 102.644531 980.164063 99.171875 961.898438 99.171875 C 921.816406 99.171875 908.617188 117.027344 905.703125 138.046875 L 901.367188 168.617188 C 898.703125 187.761719 908.234375 204.222656 941.070313 204.222656 C 959.109375 204.222656 971.800781 200.710938 973.90625 198.863281 C 975.632813 197.335938 972.792969 174.945313 970.3125 175.503906 C 966.914063 176.328125 960.152344 179.207031 947.582031 179.207031 C 936.554688 179.207031 935.5 173.578125 936.988281 163.328125 L 940.023438 141.351563 C 942.367188 125.652344 953.644531 125.046875 961.566406 125.046875 C 971.75 125.046875 974.898438 125.785156 978.183594 126.59375 C 980.414063 127.152344 989.460938 105.894531 988.097656 104.386719 "/>
<path style=" stroke:none;fill-rule:nonzero;fill:rgb(100%,100%,100%);fill-opacity:1;" d="M 1121.289063 197.890625 L 1134.539063 105.214844 C 1135.101563 101.683594 1134.71875 100.699219 1129.828125 100.699219 L 1107.050781 100.699219 C 1103.070313 100.699219 1100.890625 101.683594 1100.53125 104.296875 L 1096.128906 134.667969 C 1095.949219 136.339844 1095.089844 137.023438 1093.46875 137.023438 L 1077.25 137.023438 C 1075 137.023438 1074.128906 136.660156 1074.328125 134.429688 L 1078.539063 105.214844 C 1079.148438 101.683594 1077.050781 100.699219 1072.089844 100.699219 L 1050.039063 100.699219 C 1046.078125 100.699219 1044.898438 101.683594 1044.539063 104.296875 L 1031.210938 197.457031 C 1030.910156 200.710938 1031.140625 202.351563 1034.800781 202.351563 L 1057.71875 202.351563 C 1062.429688 202.351563 1064.789063 201.539063 1065.46875 197.890625 L 1070.109375 164.691406 C 1070.488281 162.480469 1071.050781 162.304688 1072.71875 162.304688 L 1089.640625 162.304688 C 1091.789063 162.304688 1092.179688 163.039063 1091.871094 165.09375 L 1087.210938 197.457031 C 1086.78125 200.710938 1087.949219 202.351563 1092.230469 202.351563 L 1115.148438 202.351563 C 1120.050781 202.351563 1120.859375 201.539063 1121.289063 197.890625 "/>
<path style=" stroke:none;fill-rule:nonzero;fill:rgb(100%,100%,100%);fill-opacity:1;" d="M 1252.128906 198.265625 L 1254.660156 180.140625 C 1255.089844 177.390625 1252.550781 176.527344 1246.429688 176.527344 L 1221.898438 176.527344 C 1218.910156 176.527344 1216.121094 176.636719 1216.679688 173.449219 L 1217.609375 165.828125 C 1217.988281 163.886719 1219.921875 162.574219 1221.949219 162.574219 L 1241.03125 162.574219 C 1242.519531 162.574219 1247.410156 163.039063 1248.519531 158.007813 L 1252.128906 141.125 C 1252.550781 139.359375 1252.128906 137.394531 1248.289063 137.394531 L 1224.5 137.394531 C 1223.011719 137.394531 1221.589844 136.339844 1221.898438 134.140625 L 1222.820313 127.613281 C 1223.011719 126.519531 1223.691406 125.40625 1226.789063 125.40625 L 1252.980469 125.40625 C 1256.828125 125.40625 1259.441406 125.046875 1259.871094 121.664063 L 1262.351563 104.386719 C 1262.710938 102.425781 1262.410156 100.699219 1259.191406 100.699219 L 1198.109375 100.699219 C 1194.378906 100.699219 1194 102.644531 1193.640625 105.214844 L 1180.570313 197.457031 C 1179.949219 201.144531 1182.929688 202.351563 1184.78125 202.351563 L 1248.601563 202.351563 C 1249.949219 202.351563 1251.738281 201.09375 1252.128906 198.265625 "/>
<path style=" stroke:none;fill-rule:nonzero;fill:rgb(100%,100%,100%);fill-opacity:1;" d="M 1388.179688 120.085938 L 1390.199219 104.386719 C 1390.511719 102.425781 1390.390625 100.699219 1387.109375 100.699219 L 1325.898438 100.699219 C 1322.441406 100.699219 1321.949219 102.644531 1321.570313 105.214844 L 1308.441406 197.457031 C 1307.871094 201.144531 1310.910156 202.351563 1312.578125 202.351563 L 1337.429688 202.351563 C 1338.851563 202.351563 1340.519531 201.09375 1340.949219 198.265625 L 1345.050781 168.707031 C 1345.410156 166.765625 1347.339844 165.269531 1349.570313 165.269531 L 1367.660156 165.269531 C 1369.148438 165.269531 1373.539063 165.648438 1374.960938 160.632813 L 1378.191406 143.707031 C 1378.75 141.929688 1378.191406 139.96875 1374.21875 139.96875 L 1352.039063 139.96875 C 1350.429688 139.96875 1349.191406 138.984375 1349.511719 136.714844 L 1350.75 127.613281 C 1350.878906 126.519531 1351.550781 125.40625 1354.660156 125.40625 L 1380.980469 125.40625 C 1385.621094 125.40625 1387.421875 124.539063 1388.179688 120.085938 "/>
</g>
</svg>
